<svg width="236" height="51" viewBox="0 0 236 51" fill="none" xmlns="http://www.w3.org/2000/svg">
<path d="M95.6647 20.744H90.6007V18.224H103.777V20.744H98.7127V35H95.6647V20.744ZM108.952 35.36C107.608 35.36 106.424 35.12 105.4 34.64C104.392 34.144 103.608 33.44 103.048 32.528C102.488 31.6 102.208 30.504 102.208 29.24C102.208 28.008 102.48 26.936 103.024 26.024C103.584 25.096 104.376 24.384 105.4 23.888C106.424 23.376 107.608 23.12 108.952 23.12C110.296 23.12 111.472 23.376 112.48 23.888C113.504 24.384 114.296 25.096 114.856 26.024C115.416 26.936 115.696 28.008 115.696 29.24C115.696 30.504 115.416 31.6 114.856 32.528C114.296 33.44 113.504 34.144 112.48 34.64C111.472 35.12 110.296 35.36 108.952 35.36ZM108.952 32.984C110.056 32.984 110.936 32.64 111.592 31.952C112.248 31.248 112.576 30.344 112.576 29.24C112.576 28.072 112.248 27.16 111.592 26.504C110.952 25.832 110.072 25.496 108.952 25.496C107.832 25.496 106.944 25.832 106.288 26.504C105.648 27.16 105.328 28.072 105.328 29.24C105.328 30.344 105.656 31.248 106.312 31.952C106.968 32.64 107.848 32.984 108.952 32.984ZM119.036 39.752C118.62 39.752 118.18 39.72 117.716 39.656C117.268 39.608 116.916 39.536 116.66 39.44V37.136C117.06 37.296 117.556 37.376 118.148 37.376C118.756 37.376 119.212 37.24 119.516 36.968C119.82 36.696 120.084 36.264 120.308 35.672L120.764 34.472L115.796 23.48H118.844L122.396 31.88L125.732 23.48H128.756L123.716 36.032C123.204 37.296 122.58 38.232 121.844 38.84C121.124 39.448 120.188 39.752 119.036 39.752ZM135.12 35.36C133.776 35.36 132.592 35.12 131.568 34.64C130.56 34.144 129.776 33.44 129.216 32.528C128.656 31.6 128.376 30.504 128.376 29.24C128.376 28.008 128.648 26.936 129.192 26.024C129.752 25.096 130.544 24.384 131.568 23.888C132.592 23.376 133.776 23.12 135.12 23.12C136.464 23.12 137.64 23.376 138.648 23.888C139.672 24.384 140.464 25.096 141.024 26.024C141.584 26.936 141.864 28.008 141.864 29.24C141.864 30.504 141.584 31.6 141.024 32.528C140.464 33.44 139.672 34.144 138.648 34.64C137.64 35.12 136.464 35.36 135.12 35.36ZM135.12 32.984C136.224 32.984 137.104 32.64 137.76 31.952C138.416 31.248 138.744 30.344 138.744 29.24C138.744 28.072 138.416 27.16 137.76 26.504C137.12 25.832 136.24 25.496 135.12 25.496C134 25.496 133.112 25.832 132.456 26.504C131.816 27.16 131.496 28.072 131.496 29.24C131.496 30.344 131.824 31.248 132.48 31.952C133.136 32.64 134.016 32.984 135.12 32.984ZM148.295 35.36C147.031 35.36 146.071 35.008 145.415 34.304C144.759 33.6 144.431 32.608 144.431 31.328V25.784H142.703V23.48H144.431V20.024H147.455V23.48H150.215V25.784H147.455V30.944C147.455 31.68 147.591 32.208 147.863 32.528C148.135 32.832 148.631 32.984 149.351 32.984C149.847 32.984 150.335 32.872 150.815 32.648V34.952C150.127 35.224 149.287 35.36 148.295 35.36ZM156.6 35.36C155.224 35.36 154.096 35 153.216 34.28C152.336 33.544 151.896 32.56 151.896 31.328C151.896 30.048 152.312 29.048 153.144 28.328C153.976 27.608 155.144 27.248 156.648 27.248C158.104 27.248 159.36 27.544 160.416 28.136V27.824C160.416 27.008 160.16 26.416 159.648 26.048C159.152 25.68 158.344 25.496 157.224 25.496C156.52 25.496 155.824 25.568 155.136 25.712C154.448 25.84 153.84 26.024 153.312 26.264V23.888C153.792 23.664 154.432 23.48 155.232 23.336C156.048 23.192 156.832 23.12 157.584 23.12C159.584 23.12 161.064 23.552 162.024 24.416C162.984 25.264 163.464 26.448 163.464 27.968V35H160.608V33.872C160.112 34.352 159.544 34.72 158.904 34.976C158.28 35.232 157.512 35.36 156.6 35.36ZM157.344 33.152C158.016 33.152 158.624 33.024 159.168 32.768C159.712 32.496 160.128 32.128 160.416 31.664V30.392C159.536 29.768 158.528 29.456 157.392 29.456C155.776 29.456 154.968 30.08 154.968 31.328C154.968 31.936 155.168 32.392 155.568 32.696C155.984 33 156.576 33.152 157.344 33.152ZM182.892 35.36C181.132 35.36 179.572 35.008 178.212 34.304C176.852 33.584 175.796 32.568 175.044 31.256C174.292 29.928 173.916 28.384 173.916 26.624C173.916 24.864 174.292 23.328 175.044 22.016C175.796 20.688 176.852 19.664 178.212 18.944C179.572 18.224 181.132 17.864 182.892 17.864C185.212 17.864 187.148 18.416 188.7 19.52V22.424C187.308 21.24 185.46 20.648 183.156 20.648C181.924 20.648 180.844 20.896 179.916 21.392C178.988 21.872 178.268 22.56 177.756 23.456C177.244 24.352 176.988 25.408 176.988 26.624C176.988 27.84 177.244 28.896 177.756 29.792C178.284 30.688 179.012 31.384 179.94 31.88C180.868 32.36 181.94 32.6 183.156 32.6C184.34 32.6 185.396 32.456 186.324 32.168C187.252 31.864 188.108 31.384 188.892 30.728V33.632C187.42 34.784 185.42 35.36 182.892 35.36ZM190.575 26.6H198.543V29.024H190.575V26.6ZM200.705 18.224H203.753V25.184H211.817V18.224H214.841V35H211.817V27.704H203.753V35H200.705V18.224ZM217.481 18.224H224.489C226.345 18.224 227.777 18.68 228.785 19.592C229.793 20.504 230.297 21.824 230.297 23.552C230.297 24.784 229.993 25.832 229.385 26.696C228.777 27.56 227.913 28.176 226.793 28.544L230.201 35H227.081L223.841 28.856H220.529V35H217.481V18.224ZM223.937 26.336C224.929 26.336 225.729 26.104 226.337 25.64C226.945 25.176 227.249 24.48 227.249 23.552C227.249 21.68 226.145 20.744 223.937 20.744H220.529V26.336H223.937Z" fill="white"/>
<path d="M74 25.5C74 30.7515 70.7417 36.0291 64.3882 40.1833C58.0702 44.3143 49.1054 47 39 47C28.8946 47 19.9298 44.3143 13.6118 40.1833C7.25834 36.0291 4 30.7515 4 25.5C4 20.2485 7.25834 14.9709 13.6118 10.8167C19.9298 6.68566 28.8946 4 39 4C49.1054 4 58.0702 6.68566 64.3882 10.8167C70.7417 14.9709 74 20.2485 74 25.5Z" stroke="white" stroke-width="8"/>
<path d="M57.1667 13.9939C57.1667 15.2416 56.1547 17.193 52.6791 19.0388C49.3574 20.8028 44.5272 22 39 22C33.4729 22 28.6426 20.8028 25.3209 19.0388C21.8453 17.193 20.8333 15.2416 20.8333 13.9939C20.8333 12.7462 21.8453 10.7948 25.3209 8.94903C28.6426 7.18506 33.4729 5.98781 39 5.98781C44.5272 5.98781 49.3574 7.18506 52.6791 8.94903C56.1547 10.7948 57.1667 12.7462 57.1667 13.9939Z" stroke="white" stroke-width="7"/>
<path d="M45.9566 24.5671C45.9566 30.4753 44.9972 35.7321 43.5182 39.4382C42.7764 41.2968 41.9432 42.6665 41.1202 43.5387C40.301 44.4069 39.6327 44.6463 39.145 44.6463C38.6572 44.6463 37.9889 44.4069 37.1698 43.5387C36.3468 42.6665 35.5135 41.2968 34.7717 39.4382C33.2927 35.7321 32.3333 30.4753 32.3333 24.5671C32.3333 18.6589 33.2927 13.402 34.7717 9.696C35.5135 7.83738 36.3468 6.46768 37.1698 5.59547C37.9889 4.72729 38.6572 4.48781 39.145 4.48781C39.6327 4.48781 40.301 4.72729 41.1202 5.59547C41.9432 6.46768 42.7764 7.83738 43.5182 9.696C44.9972 13.402 45.9566 18.6589 45.9566 24.5671Z" stroke="white" stroke-width="4"/>
</svg>
