<svg width="144" height="82" viewBox="0 0 144 82" fill="none" xmlns="http://www.w3.org/2000/svg">
<path d="M137.5 41C137.5 48.9712 131.765 57.4699 119.695 64.343C107.814 71.1089 90.9644 75.5 72 75.5C53.0356 75.5 36.1865 71.1089 24.3048 64.343C12.2349 57.4699 6.5 48.9712 6.5 41C6.5 33.0288 12.2349 24.5301 24.3048 17.657C36.1865 10.8911 53.0356 6.5 72 6.5C90.9644 6.5 107.814 10.8911 119.695 17.657C131.765 24.5301 137.5 33.0288 137.5 41Z" stroke="black" stroke-width="13"/>
<path d="M108 22.5C108 25.1124 105.544 28.7415 98.6052 31.951C92.0028 35.0046 82.6005 37 72 37C61.3995 37 51.9972 35.0046 45.3948 31.951C38.4555 28.7415 36 25.1124 36 22.5C36 19.8876 38.4555 16.2585 45.3948 13.049C51.9972 9.99543 61.3995 8 72 8C82.6005 8 92.0028 9.99543 98.6052 13.049C105.544 16.2585 108 19.8876 108 22.5Z" stroke="black" stroke-width="8"/>
<path d="M83.0352 39.5C83.0352 48.6973 81.3157 56.7568 78.7705 62.3111C76.005 68.3461 73.3004 69.5 72.2676 69.5C71.2348 69.5 68.5302 68.3461 65.7647 62.3111C63.2195 56.7568 61.5 48.6973 61.5 39.5C61.5 30.3027 63.2195 22.2432 65.7647 16.6889C68.5302 10.6539 71.2348 9.5 72.2676 9.5C73.3004 9.5 76.005 10.6539 78.7705 16.6889C81.3157 22.2432 83.0352 30.3027 83.0352 39.5Z" stroke="black" stroke-width="11"/>
</svg>
